<svg width="27" height="32" viewBox="0 0 27 32" fill="none" xmlns="http://www.w3.org/2000/svg">
<path fill-rule="evenodd" clip-rule="evenodd" d="M13.5068 1.5C10.6622 1.5 8.41797 3.64276 8.41797 6.21739V11.4348C8.41797 11.7109 8.19411 11.9348 7.91797 11.9348C7.64183 11.9348 7.41797 11.7109 7.41797 11.4348V6.21739C7.41797 3.02681 10.1758 0.5 13.5068 0.5C16.8378 0.5 19.5956 3.02681 19.5956 6.21739V11.4348C19.5956 11.7109 19.3718 11.9348 19.0956 11.9348C18.8195 11.9348 18.5956 11.7109 18.5956 11.4348V6.21739C18.5956 3.64276 16.3514 1.5 13.5068 1.5Z" fill="black"/>
<path fill-rule="evenodd" clip-rule="evenodd" d="M2.74464 8.77784C2.74463 8.77792 2.74464 8.77775 2.74464 8.77784L1.50125 29.6448C1.50124 29.6451 1.50127 29.6445 1.50125 29.6448C1.47765 30.0807 1.85531 30.4997 2.39923 30.4997H24.6009C25.1526 30.4997 25.5228 30.0744 25.4989 29.6458C25.4989 29.6456 25.4989 29.6459 25.4989 29.6458L24.2555 8.77784C24.2315 8.38285 23.8672 8.02148 23.3574 8.02148H3.64276C3.13299 8.02148 2.76873 8.38296 2.74464 8.77784ZM1.74647 8.71731C1.80635 7.72969 2.6716 7.02148 3.64276 7.02148H23.3574C24.3285 7.02148 25.1938 7.72969 25.2536 8.71731L26.4973 29.589C26.557 30.6471 25.6697 31.4997 24.6009 31.4997H2.39923C1.3507 31.4997 0.443123 30.6663 0.502785 29.5895L0.502904 29.5874L1.74647 8.71731Z" fill="black"/>
</svg>
