<svg width="27" height="27" viewBox="0 0 27 27" fill="none" xmlns="http://www.w3.org/2000/svg">
<path fill-rule="evenodd" clip-rule="evenodd" d="M0.500126 8.14562C0.477079 3.96798 3.60836 0.5 7.52183 0.5C10.0637 0.5 12.2726 1.97296 13.4991 4.13929C14.7257 1.96454 16.936 0.5 19.4783 0.5C23.3941 0.5 26.5 3.97002 26.5 8.14286V8.15171L26.4999 8.15171C26.4255 12.35 23.5752 16.046 20.6689 19.0697C19.7109 20.0665 18.7237 21.0124 17.8136 21.8844C17.3406 22.3376 16.8884 22.7709 16.472 23.181C15.222 24.4119 14.3176 25.4131 13.9549 26.2076C13.8736 26.3857 13.6958 26.5 13.5001 26.5C13.3043 26.5 13.1265 26.3857 13.0452 26.2076C12.6829 25.4139 11.7734 24.4125 10.5154 23.1803C10.0997 22.7732 9.64883 22.3434 9.17737 21.894C8.25858 21.0181 7.26165 20.0677 6.29514 19.0659C3.37721 16.0413 0.523038 12.3426 0.500126 8.14562ZM1.00012 8.14286L0.500126 8.14562L1.00012 8.14286ZM7.52183 1.5C4.23967 1.5 1.47968 4.43678 1.50011 8.1401L1.50011 8.14013C1.52068 11.9075 4.10126 15.3515 7.01482 18.3716C7.96843 19.3601 8.93474 20.281 9.84365 21.1473C10.3199 21.6013 10.7804 22.0402 11.2151 22.4659C12.1336 23.3655 12.9539 24.2216 13.4996 25.0101C14.0426 24.2225 14.8575 23.3674 15.7703 22.4685C16.206 22.0395 16.6678 21.5971 17.1455 21.1394C18.0456 20.2771 19.0023 19.3606 19.948 18.3767C22.8476 15.36 25.4311 11.9146 25.5 8.13842C25.4978 4.4324 22.7568 1.5 19.4783 1.5C17.0365 1.5 14.9002 3.11019 13.9652 5.48105C13.8899 5.67194 13.7057 5.79745 13.5005 5.79762C13.2953 5.79778 13.1108 5.67257 13.0352 5.4818C12.0999 3.12111 9.96261 1.5 7.52183 1.5Z" fill="black"/>
</svg>
