<svg width="42" height="42" viewBox="0 0 42 42" fill="none" xmlns="http://www.w3.org/2000/svg">
<path fill-rule="evenodd" clip-rule="evenodd" d="M26.588 11.9564C26.588 8.52413 23.5087 5.82633 19.9593 6.46588L19.9573 6.46622C18.7241 6.6834 17.5869 7.46725 16.7513 8.55085C15.9159 9.63428 15.4141 10.977 15.4141 12.252V14.0956C15.4141 15.3694 15.9193 16.7075 16.7572 17.7895C17.5951 18.8714 18.7334 19.6566 19.9602 19.8819C23.5093 20.5209 26.588 17.8232 26.588 14.3912V11.9564ZM19.7829 5.48155C23.9547 4.73046 27.588 7.91075 27.588 11.9564V14.3912C27.588 18.4372 23.9542 21.6177 19.7819 20.8659L19.7803 20.8656C18.2595 20.5865 16.9198 19.6326 15.9666 18.4018C15.0131 17.1706 14.4141 15.6219 14.4141 14.0956V12.252C14.4141 10.7271 15.0079 9.17415 15.9594 7.9402C16.9106 6.70669 18.2513 5.75156 19.7829 5.48155Z" fill="black"/>
<path fill-rule="evenodd" clip-rule="evenodd" d="M21 1.5C10.2304 1.5 1.5 10.2304 1.5 21C1.5 31.7696 10.2304 40.5 21 40.5C31.7696 40.5 40.5 31.7696 40.5 21C40.5 10.2304 31.7696 1.5 21 1.5ZM0.5 21C0.5 9.67816 9.67816 0.5 21 0.5C32.3218 0.5 41.5 9.67816 41.5 21C41.5 32.3218 32.3218 41.5 21 41.5C9.67816 41.5 0.5 32.3218 0.5 21Z" fill="black"/>
<path fill-rule="evenodd" clip-rule="evenodd" d="M21.0021 27.5869C15.0541 27.5869 9.96746 31.0068 7.82422 35.8291C7.71207 36.0814 7.41659 36.1951 7.16424 36.0829C6.9119 35.9708 6.79825 35.6753 6.91041 35.4229C9.21933 30.2278 14.6718 26.5869 21.0021 26.5869C27.3324 26.5869 32.7848 30.2278 35.0938 35.4229C35.2059 35.6753 35.0923 35.9708 34.8399 36.0829C34.5876 36.1951 34.2921 36.0814 34.18 35.8291C32.0367 31.0068 26.9501 27.5869 21.0021 27.5869Z" fill="black"/>
</svg>
