<svg width="27" height="27" viewBox="0 0 27 27" fill="none" xmlns="http://www.w3.org/2000/svg">
<path fill-rule="evenodd" clip-rule="evenodd" d="M10.7825 1.5C5.65591 1.5 1.5 5.65596 1.5 10.7826C1.5 15.9093 5.65591 20.0652 10.7825 20.0652C15.909 20.0652 20.065 15.9093 20.065 10.7826C20.065 5.65596 15.909 1.5 10.7825 1.5ZM0.5 10.7826C0.5 5.10369 5.10362 0.5 10.7825 0.5C16.4613 0.5 21.065 5.10369 21.065 10.7826C21.065 16.4615 16.4613 21.0652 10.7825 21.0652C5.10362 21.0652 0.5 16.4615 0.5 10.7826Z" fill="#030303"/>
<path fill-rule="evenodd" clip-rule="evenodd" d="M17.3418 17.3418C17.537 17.1465 17.8536 17.1465 18.0489 17.3418L26.3531 25.6461C26.5484 25.8414 26.5484 26.158 26.3531 26.3532C26.1579 26.5485 25.8413 26.5485 25.646 26.3532L17.3418 18.0489C17.1465 17.8536 17.1465 17.537 17.3418 17.3418Z" fill="#030303"/>
</svg>
